<mxfile host="app.diagrams.net" modified="2022-12-13T22:56:05.563Z" agent="5.0 (Windows NT 10.0; Win64; x64) AppleWebKit/537.36 (KHTML, like Gecko) Chrome/108.0.0.0 Safari/537.36" etag="YTtx7gX7U4xcvei4swEj" version="20.6.2" type="github">
  <diagram name="Page-1" id="c4acf3e9-155e-7222-9cf6-157b1a14988f">
    <mxGraphModel dx="1406" dy="745" grid="1" gridSize="10" guides="1" tooltips="1" connect="1" arrows="1" fold="1" page="1" pageScale="1" pageWidth="850" pageHeight="1100" background="none" math="0" shadow="0">
      <root>
        <mxCell id="0" />
        <mxCell id="1" parent="0" />
        <mxCell id="5d2195bd80daf111-18" value="&lt;p style=&quot;margin:0px;margin-top:4px;text-align:center;&quot;&gt;&lt;i&gt;&amp;lt;&amp;lt;Interface&amp;gt;&amp;gt;&lt;/i&gt;&lt;br&gt;&lt;b&gt;utilizadores&lt;/b&gt;&lt;/p&gt;&lt;hr size=&quot;1&quot;&gt;&lt;p style=&quot;margin:0px;margin-left:4px;&quot;&gt;+ datanasc&lt;br&gt;+ morada&lt;/p&gt;&lt;p style=&quot;margin:0px;margin-left:4px;&quot;&gt;+ email&lt;/p&gt;&lt;p style=&quot;margin:0px;margin-left:4px;&quot;&gt;&lt;span style=&quot;background-color: initial;&quot;&gt;+ password&lt;br&gt;&lt;/span&gt;+ user_name&lt;/p&gt;&lt;hr size=&quot;1&quot;&gt;&lt;p style=&quot;margin:0px;margin-left:4px;&quot;&gt;+ Login()&lt;br&gt;+ Sign in()&lt;/p&gt;&lt;p style=&quot;margin:0px;margin-left:4px;&quot;&gt;+ Logout()&lt;/p&gt;&lt;p style=&quot;margin:0px;margin-left:4px;&quot;&gt;+ Receber notfications()&lt;/p&gt;&lt;p style=&quot;margin:0px;margin-left:4px;&quot;&gt;+ Acesso รก area publica()&lt;br&gt;+ Aceder ao perfil&lt;/p&gt;&lt;span style=&quot;background-color: rgb(255, 255, 255); color: rgb(220, 221, 222); font-size: 16px;&quot;&gt;&amp;nbsp;&lt;/span&gt;" style="verticalAlign=top;align=left;overflow=fill;fontSize=12;fontFamily=Helvetica;html=1;rounded=0;shadow=0;comic=0;labelBackgroundColor=none;strokeWidth=1" parent="1" vertex="1">
          <mxGeometry x="40" y="87" width="190" height="223" as="geometry" />
        </mxCell>
        <mxCell id="U7lJX6atKXLj5nYf8dTg-1" value="&lt;p style=&quot;margin:0px;margin-top:4px;text-align:center;&quot;&gt;&lt;i&gt;&amp;lt;&amp;lt;Interface&amp;gt;&amp;gt;&lt;/i&gt;&lt;br&gt;&lt;span id=&quot;docs-internal-guid-162300e9-7fff-615d-8241-27b93749e002&quot;&gt;&lt;b&gt;&lt;span style=&quot;font-size: 12pt; font-family: Arial; color: rgb(13, 14, 16); background-color: transparent; font-variant-numeric: normal; font-variant-east-asian: normal; vertical-align: baseline;&quot;&gt;guest &lt;/span&gt;&lt;span style=&quot;font-size: 12pt; color: rgb(13, 14, 16); background-color: transparent; font-variant-numeric: normal; font-variant-east-asian: normal; vertical-align: baseline;&quot;&gt;user&lt;/span&gt;&lt;/b&gt;&lt;/span&gt;&lt;br&gt;&lt;/p&gt;&lt;hr size=&quot;1&quot;&gt;&lt;p style=&quot;margin:0px;margin-left:4px;&quot;&gt;&lt;br&gt;&lt;/p&gt;&lt;span id=&quot;docs-internal-guid-a093aedd-7fff-57dc-1b45-3bb8c17fe3ff&quot;&gt;&lt;span style=&quot;background-color: transparent; font-variant-numeric: normal; font-variant-east-asian: normal; vertical-align: baseline;&quot;&gt;&lt;font style=&quot;font-size: 12px;&quot;&gt;&lt;font color=&quot;#0d0e10&quot;&gt;+ Access to a public area&amp;nbsp;&lt;/font&gt;&lt;/font&gt;&lt;/span&gt;&lt;/span&gt;&lt;hr size=&quot;1&quot;&gt;&lt;p style=&quot;margin:0px;margin-left:4px;&quot;&gt;+ free information&lt;/p&gt;" style="verticalAlign=top;align=left;overflow=fill;fontSize=12;fontFamily=Helvetica;html=1;rounded=0;shadow=0;comic=0;labelBackgroundColor=none;strokeWidth=1" parent="1" vertex="1">
          <mxGeometry x="270" y="87" width="190" height="183" as="geometry" />
        </mxCell>
        <mxCell id="U7lJX6atKXLj5nYf8dTg-3" value="&lt;p style=&quot;margin:0px;margin-top:4px;text-align:center;&quot;&gt;&lt;i&gt;&amp;lt;&amp;lt;Interface&amp;gt;&amp;gt;&lt;/i&gt;&lt;br&gt;&lt;span id=&quot;docs-internal-guid-162300e9-7fff-615d-8241-27b93749e002&quot;&gt;&lt;b&gt;&lt;span style=&quot;font-size: 12pt; font-family: Arial; color: rgb(13, 14, 16); background-color: transparent; font-variant-numeric: normal; font-variant-east-asian: normal; vertical-align: baseline;&quot;&gt;premium&amp;nbsp;&lt;/span&gt;&lt;span style=&quot;font-size: 12pt; color: rgb(13, 14, 16); background-color: transparent; font-variant-numeric: normal; font-variant-east-asian: normal; vertical-align: baseline;&quot;&gt;user&lt;/span&gt;&lt;/b&gt;&lt;/span&gt;&lt;br&gt;&lt;/p&gt;&lt;hr size=&quot;1&quot;&gt;&lt;p style=&quot;margin:0px;margin-left:4px;&quot;&gt;&lt;br&gt;&lt;/p&gt;&lt;span id=&quot;docs-internal-guid-a093aedd-7fff-57dc-1b45-3bb8c17fe3ff&quot;&gt;&lt;span style=&quot;background-color: transparent; font-variant-numeric: normal; font-variant-east-asian: normal; vertical-align: baseline;&quot;&gt;&lt;font style=&quot;font-size: 12px;&quot;&gt;&lt;font color=&quot;#0d0e10&quot;&gt;+ Access to a private area&amp;nbsp;&lt;/font&gt;&lt;/font&gt;&lt;/span&gt;&lt;/span&gt;&lt;hr size=&quot;1&quot;&gt;&lt;p style=&quot;margin:0px;margin-left:4px;&quot;&gt;+ paid information&lt;/p&gt;" style="verticalAlign=top;align=left;overflow=fill;fontSize=12;fontFamily=Helvetica;html=1;rounded=0;shadow=0;comic=0;labelBackgroundColor=none;strokeWidth=1" parent="1" vertex="1">
          <mxGeometry x="520" y="87" width="190" height="183" as="geometry" />
        </mxCell>
      </root>
    </mxGraphModel>
  </diagram>
</mxfile>
